<svg width="129" height="26" viewBox="0 0 129 26" fill="none" xmlns="http://www.w3.org/2000/svg">
<path d="M9.33984 2.53516V12.3262H10.0254C11.0801 12.3262 11.9414 12.168 12.6094 11.8516C13.2773 11.5352 13.8398 11.002 14.2969 10.252C14.7656 9.50195 15.0703 8.48828 15.2109 7.21094H15.8262V19.1816H15.2109C14.9883 16.9199 14.3789 15.4316 13.3828 14.7168C12.3984 13.9902 11.2793 13.627 10.0254 13.627H9.33984V20.9219C9.33984 22.1406 9.4043 22.9023 9.5332 23.207C9.67383 23.5117 9.9375 23.7812 10.3242 24.0156C10.7227 24.2383 11.2559 24.3496 11.9238 24.3496H12.7148V25H0.251953V24.3496H1.04297C1.73438 24.3496 2.29102 24.2266 2.71289 23.9805C3.01758 23.8164 3.25195 23.5352 3.41602 23.1367C3.54492 22.8555 3.60938 22.1172 3.60938 20.9219V5.24219C3.60938 4.02344 3.54492 3.26172 3.41602 2.95703C3.28711 2.65234 3.02344 2.38867 2.625 2.16602C2.23828 1.93164 1.71094 1.81445 1.04297 1.81445H0.251953V1.16406H20.3613V8.00195H19.6406C19.4766 6.39648 19.0547 5.20703 18.375 4.43359C17.707 3.66016 16.7344 3.11523 15.457 2.79883C14.7539 2.62305 13.4531 2.53516 11.5547 2.53516H9.33984ZM38.5371 8.56445V21.4316C38.5371 22.6855 38.6543 23.4707 38.8887 23.7871C39.123 24.0918 39.5977 24.2852 40.3125 24.3672V25H33.6152V22.8027C32.8301 23.7402 32.0449 24.4258 31.2598 24.8594C30.4746 25.2812 29.5957 25.4922 28.623 25.4922C27.6973 25.4922 26.8711 25.2109 26.1445 24.6484C25.4297 24.0742 24.9492 23.4062 24.7031 22.6445C24.457 21.8828 24.334 20.5527 24.334 18.6543V12.1328C24.334 10.8906 24.2168 10.1172 23.9824 9.8125C23.7598 9.50781 23.2852 9.30859 22.5586 9.21484V8.56445H29.2559V19.7969C29.2559 20.9688 29.3086 21.7246 29.4141 22.0645C29.5312 22.4043 29.707 22.6621 29.9414 22.8379C30.1875 23.0137 30.4688 23.1016 30.7852 23.1016C31.207 23.1016 31.5879 22.9902 31.9277 22.7676C32.3965 22.4629 32.959 21.8477 33.6152 20.9219V12.1328C33.6152 10.8906 33.498 10.1172 33.2637 9.8125C33.041 9.50781 32.5664 9.30859 31.8398 9.21484V8.56445H38.5371ZM49.418 8.56445V10.6914C50.2617 9.77734 51.0703 9.11523 51.8438 8.70508C52.6172 8.2832 53.4492 8.07227 54.3398 8.07227C55.4062 8.07227 56.291 8.37109 56.9941 8.96875C57.6973 9.55469 58.166 10.2871 58.4004 11.166C58.5879 11.834 58.6816 13.1172 58.6816 15.0156V21.4141C58.6816 22.6797 58.793 23.4707 59.0156 23.7871C59.25 24.0918 59.7305 24.2852 60.457 24.3672V25H52.1426V24.3672C52.7637 24.2852 53.209 24.0273 53.4785 23.5938C53.666 23.3008 53.7598 22.5742 53.7598 21.4141V14.1016C53.7598 12.7539 53.707 11.9043 53.6016 11.5527C53.4961 11.2012 53.3145 10.9316 53.0566 10.7441C52.8105 10.5449 52.5352 10.4453 52.2305 10.4453C51.2227 10.4453 50.2852 11.166 49.418 12.6074V21.4141C49.418 22.6445 49.5293 23.4238 49.752 23.752C49.9863 24.0801 50.4141 24.2852 51.0352 24.3672V25H42.7207V24.3672C43.4121 24.2969 43.9043 24.0742 44.1973 23.6992C44.3965 23.4414 44.4961 22.6797 44.4961 21.4141V12.1328C44.4961 10.8906 44.3789 10.1172 44.1445 9.8125C43.9219 9.50781 43.4473 9.30859 42.7207 9.21484V8.56445H49.418ZM66.6973 0.601562C67.459 0.601562 68.1035 0.871094 68.6309 1.41016C69.1582 1.9375 69.4219 2.57617 69.4219 3.32617C69.4219 4.07617 69.1523 4.71484 68.6133 5.24219C68.0859 5.76953 67.4473 6.0332 66.6973 6.0332C65.9473 6.0332 65.3086 5.76953 64.7812 5.24219C64.2539 4.71484 63.9902 4.07617 63.9902 3.32617C63.9902 2.57617 64.2539 1.9375 64.7812 1.41016C65.3086 0.871094 65.9473 0.601562 66.6973 0.601562ZM69.1582 8.56445V21.5898C69.1582 22.75 69.293 23.4941 69.5625 23.8223C69.832 24.1387 70.3594 24.3203 71.1445 24.3672V25H62.2676V24.3672C62.9941 24.3438 63.5332 24.1328 63.8848 23.7344C64.1191 23.4648 64.2363 22.75 64.2363 21.5898V11.9922C64.2363 10.832 64.1016 10.0938 63.832 9.77734C63.5625 9.44922 63.041 9.26172 62.2676 9.21484V8.56445H69.1582Z" fill="#171727"/>
<path d="M81.3574 2.53516V12.2383H81.832C83.3438 12.2383 84.4395 11.7637 85.1191 10.8145C85.7988 9.86523 86.2324 8.46484 86.4199 6.61328H87.0879V19.0938H86.4199C86.2793 17.7344 85.9805 16.6211 85.5234 15.7539C85.0781 14.8867 84.5566 14.3066 83.959 14.0137C83.3613 13.709 82.4941 13.5566 81.3574 13.5566V20.2715C81.3574 21.584 81.4102 22.3867 81.5156 22.6797C81.6328 22.9727 81.8438 23.2129 82.1484 23.4004C82.4531 23.5879 82.9453 23.6816 83.625 23.6816H85.0488C87.2754 23.6816 89.0566 23.166 90.3926 22.1348C91.7402 21.1035 92.707 19.5332 93.293 17.4238H93.9434L92.8711 25H72.2695V24.3496H73.0605C73.752 24.3496 74.3086 24.2266 74.7305 23.9805C75.0352 23.8164 75.2695 23.5352 75.4336 23.1367C75.5625 22.8555 75.627 22.1172 75.627 20.9219V5.24219C75.627 4.16406 75.5977 3.50195 75.5391 3.25586C75.4219 2.8457 75.2051 2.5293 74.8887 2.30664C74.4434 1.97852 73.834 1.81445 73.0605 1.81445H72.2695V1.16406H92.2207V8.21289H91.5527C91.2129 6.49023 90.7324 5.25391 90.1113 4.50391C89.502 3.75391 88.6348 3.20312 87.5098 2.85156C86.8535 2.64062 85.623 2.53516 83.8184 2.53516H81.3574ZM103.594 8.56445V12.291C104.684 10.5918 105.639 9.4668 106.459 8.91602C107.279 8.35352 108.07 8.07227 108.832 8.07227C109.488 8.07227 110.01 8.27734 110.396 8.6875C110.795 9.08594 110.994 9.6543 110.994 10.3926C110.994 11.1777 110.801 11.7871 110.414 12.2207C110.039 12.6543 109.582 12.8711 109.043 12.8711C108.422 12.8711 107.883 12.6719 107.426 12.2734C106.969 11.875 106.699 11.6523 106.617 11.6055C106.5 11.5352 106.365 11.5 106.213 11.5C105.873 11.5 105.551 11.6289 105.246 11.8867C104.766 12.2852 104.402 12.8535 104.156 13.5918C103.781 14.7285 103.594 15.9824 103.594 17.3535V21.1328L103.611 22.1172C103.611 22.7852 103.652 23.2129 103.734 23.4004C103.875 23.7168 104.08 23.9512 104.35 24.1035C104.631 24.2441 105.1 24.332 105.756 24.3672V25H96.8789V24.3672C97.5938 24.3086 98.0742 24.1152 98.3203 23.7871C98.5781 23.4473 98.707 22.5625 98.707 21.1328V12.0449C98.707 11.1074 98.6602 10.5098 98.5664 10.252C98.4492 9.92383 98.2793 9.68359 98.0566 9.53125C97.834 9.37891 97.4414 9.27344 96.8789 9.21484V8.56445H103.594ZM121.84 22.5742C119.836 24.3438 118.037 25.2285 116.443 25.2285C115.506 25.2285 114.727 24.9238 114.105 24.3145C113.484 23.6934 113.174 22.9199 113.174 21.9941C113.174 20.7402 113.713 19.6152 114.791 18.6191C115.869 17.6113 118.219 16.2754 121.84 14.6113V12.959C121.84 11.7168 121.77 10.9375 121.629 10.6211C121.5 10.293 121.248 10.0117 120.873 9.77734C120.498 9.53125 120.076 9.4082 119.607 9.4082C118.846 9.4082 118.219 9.57812 117.727 9.91797C117.422 10.1289 117.27 10.375 117.27 10.6562C117.27 10.9023 117.434 11.207 117.762 11.5703C118.207 12.0742 118.43 12.5605 118.43 13.0293C118.43 13.6035 118.213 14.0957 117.779 14.5059C117.357 14.9043 116.801 15.1035 116.109 15.1035C115.371 15.1035 114.75 14.8809 114.246 14.4355C113.754 13.9902 113.508 13.4688 113.508 12.8711C113.508 12.0273 113.842 11.2246 114.51 10.4629C115.178 9.68945 116.109 9.09766 117.305 8.6875C118.5 8.27734 119.742 8.07227 121.031 8.07227C122.59 8.07227 123.82 8.40625 124.723 9.07422C125.637 9.73047 126.229 10.4453 126.498 11.2188C126.662 11.7109 126.744 12.8418 126.744 14.6113V20.9922C126.744 21.7422 126.773 22.2168 126.832 22.416C126.891 22.6035 126.979 22.7441 127.096 22.8379C127.213 22.9316 127.348 22.9785 127.5 22.9785C127.805 22.9785 128.115 22.7617 128.432 22.3281L128.959 22.75C128.373 23.6172 127.764 24.25 127.131 24.6484C126.51 25.0352 125.801 25.2285 125.004 25.2285C124.066 25.2285 123.334 25.0117 122.807 24.5781C122.279 24.1328 121.957 23.4648 121.84 22.5742ZM121.84 21.291V15.7891C120.422 16.6211 119.367 17.5117 118.676 18.4609C118.219 19.0938 117.99 19.7324 117.99 20.377C117.99 20.916 118.184 21.3906 118.57 21.8008C118.863 22.1172 119.273 22.2754 119.801 22.2754C120.387 22.2754 121.066 21.9473 121.84 21.291Z" fill="#D38669"/>
</svg>
